<?xml version="1.0" encoding="UTF-8"?>
<svg id="Warstwa_10" data-name="Warstwa 10" xmlns="http://www.w3.org/2000/svg" viewBox="0 0 822.05 923.77">
  <defs>
    <style>
      .cls-1 {
        fill: #0e0021;
      }
    </style>
  </defs>
  <g>
    <path class="cls-1" d="m697.63,649.65c-7.05-12.2-13.98-24.21-20.99-36.34,30.94-22.48,61.82-44.92,92.7-67.36-.04-.09-.07-.17-.11-.26h-87.94c3.51,6.09,6.92,12.01,10.44,18.12-10.21,7.42-20.4,14.83-30.76,22.36-15.09-26.13-30.11-52.15-45.25-78.37h412.79c-.31,1.17-43.67,76.49-45.07,78.27-10.16-7.38-20.32-14.76-30.63-22.25,3.47-6.04,6.9-12,10.44-18.14h-87.94c-.04.08-.09.17-.13.25,30.87,22.43,61.74,44.86,92.73,67.38-7,12.12-13.93,24.12-20.98,36.34-41.59-30.2-83.07-60.36-124.65-90.56-41.53,30.18-83,60.31-124.65,90.56Z"/>
    <path class="cls-1" d="m822.28,866.53c-36.57-63.81-73-127.39-109.54-191.16,10.37-6.76,20.7-13.49,31.14-20.3,26.12,45.24,52.18,90.37,78.4,135.79,26.17-45.33,52.22-90.44,78.26-135.54,1.17.35,29.35,18.58,31.21,20.18-36.44,63.59-72.89,127.2-109.46,191.03Z"/>
    <path class="cls-1" d="m807.69,638.65c0,11.27-9.09,20.31-20.39,20.3-11.24-.01-20.3-9.14-20.27-20.43.03-11.26,9.17-20.37,20.4-20.32,11.27.05,20.27,9.14,20.26,20.45Z"/>
  </g>
  <g id="Warstwa_10-2" data-name="Warstwa 10">
    <g>
      <g id="Warstwa_10-3" data-name="Warstwa 10">
        <g>
          <path class="cls-1" d="m-124.42,650.47c-7.05-12.2-13.98-24.21-20.99-36.34,30.94-22.48,61.82-44.92,92.7-67.36-.04-.09-.07-.17-.11-.26h-87.94c3.51,6.09,6.92,12.01,10.44,18.12-10.21,7.42-20.4,14.83-30.76,22.36-15.09-26.13-30.11-52.15-45.25-78.37H206.47c-.31,1.17-43.67,76.49-45.07,78.27-10.16-7.38-20.32-14.76-30.63-22.25,3.47-6.04,6.9-12,10.44-18.14H53.26c-.04.08-.09.17-.13.25,30.87,22.43,61.74,44.86,92.73,67.38-7,12.12-13.93,24.12-20.98,36.34-41.59-30.2-83.07-60.36-124.65-90.56-41.53,30.18-83,60.31-124.65,90.56Z"/>
          <path class="cls-1" d="m.23,867.36c-36.57-63.81-73-127.39-109.54-191.16,10.37-6.76,20.7-13.49,31.14-20.3,26.12,45.24,52.18,90.37,78.4,135.79,26.17-45.33,52.22-90.44,78.26-135.54,1.17.35,29.35,18.58,31.21,20.18-36.44,63.59-72.89,127.2-109.46,191.03Z"/>
          <path class="cls-1" d="m55.52,639.41c0,11.22-9.12,20.35-20.34,20.36-11.24.01-20.39-9.08-20.41-20.29-.02-11.29,9.17-20.5,20.43-20.46,11.22.04,20.32,9.17,20.33,20.4Z"/>
        </g>
      </g>
      <path class="cls-1" d="m287.49,193.04c-7.05-12.2-13.98-24.21-20.99-36.34,30.94-22.48,61.82-44.92,92.7-67.36-.04-.09-.07-.17-.11-.26h-87.94c3.51,6.09,6.92,12.01,10.44,18.12-10.21,7.42-20.4,14.83-30.76,22.36-15.09-26.13-30.11-52.15-45.25-78.37h412.79c-.31,1.17-43.67,76.49-45.07,78.27-10.16-7.38-20.32-14.76-30.63-22.25,3.47-6.04,6.9-12,10.44-18.14h-87.94c-.04.08-.09.17-.13.25,30.87,22.43,61.74,44.86,92.73,67.38-7,12.12-13.93,24.12-20.98,36.34-41.59-30.2-83.07-60.36-124.65-90.56-41.53,30.18-83,60.31-124.65,90.56Z"/>
      <path class="cls-1" d="m412.13,409.92c-36.57-63.81-73-127.39-109.54-191.16,10.37-6.76,20.7-13.49,31.14-20.3,26.12,45.24,52.18,90.37,78.4,135.79,26.17-45.33,52.22-90.44,78.26-135.54,1.17.35,29.35,18.58,31.21,20.18-36.44,63.59-72.89,127.2-109.46,191.03Z"/>
      <path class="cls-1" d="m467.42,181.98c0,11.22-9.12,20.35-20.34,20.36-11.24.01-20.39-9.08-20.41-20.29-.02-11.29,9.17-20.5,20.43-20.46,11.22.04,20.32,9.17,20.33,20.4Z"/>
      <path class="cls-1" d="m397.55,182.04c0,11.27-9.09,20.31-20.39,20.3-11.24-.01-20.3-9.14-20.27-20.43.03-11.26,9.17-20.37,20.4-20.32,11.27.05,20.27,9.14,20.26,20.45Z"/>
    </g>
  </g>
  <g id="Warstwa_10-4" data-name="Warstwa 10">
    <g>
      <path class="cls-1" d="m286.46,724.74c-7.05,12.2-13.98,24.21-20.99,36.34,30.94,22.48,61.82,44.92,92.7,67.36-.04.09-.07.17-.11.26h-87.94c3.51-6.09,6.92-12.01,10.44-18.12-10.21-7.42-20.4-14.83-30.76-22.36-15.09,26.13-30.11,52.15-45.25,78.37h412.79c-.31-1.17-43.67-76.49-45.07-78.27-10.16,7.38-20.32,14.76-30.63,22.25,3.47,6.04,6.9,12,10.44,18.14h-87.94c-.04-.08-.09-.17-.13-.25,30.87-22.43,61.74-44.86,92.73-67.38-7-12.12-13.93-24.12-20.98-36.34-41.59,30.2-83.07,60.36-124.65,90.56-41.53-30.18-83-60.31-124.65-90.56Z"/>
      <path class="cls-1" d="m411.11,507.86c-36.57,63.81-73,127.39-109.54,191.16,10.37,6.76,20.7,13.49,31.14,20.3,26.12-45.24,52.18-90.37,78.4-135.79,26.17,45.33,52.22,90.44,78.26,135.54,1.17-.35,29.35-18.58,31.21-20.18-36.44-63.59-72.89-127.2-109.46-191.03Z"/>
    </g>
    <g id="Warstwa_10-5" data-name="Warstwa 10">
      <g>
        <path class="cls-1" d="m697.48,265.58c-7.05,12.2-13.98,24.21-20.99,36.34,30.94,22.48,61.82,44.92,92.7,67.36-.04.09-.07.17-.11.26h-87.94c3.51-6.09,6.92-12.01,10.44-18.12-10.21-7.42-20.4-14.83-30.76-22.36-15.09,26.13-30.11,52.15-45.25,78.37h412.79c-.31-1.17-43.67-76.49-45.07-78.27-10.16,7.38-20.32,14.76-30.63,22.25,3.47,6.04,6.9,12,10.44,18.14h-87.94c-.04-.08-.09-.17-.13-.25,30.87-22.43,61.74-44.86,92.73-67.38-7-12.12-13.93-24.12-20.98-36.34-41.59,30.2-83.07,60.36-124.65,90.56-41.53-30.18-83-60.31-124.65-90.56Z"/>
        <path class="cls-1" d="m822.13,48.7c-36.57,63.81-73,127.39-109.54,191.16,10.37,6.76,20.7,13.49,31.14,20.3,26.12-45.24,52.18-90.37,78.4-135.79,26.17,45.33,52.22,90.44,78.26,135.54,1.17-.35,29.35-18.58,31.21-20.18-36.44-63.59-72.89-127.2-109.46-191.03Z"/>
      </g>
    </g>
    <g id="Warstwa_10-6" data-name="Warstwa 10">
      <g>
        <path class="cls-1" d="m-124.56,267.86c-7.05,12.2-13.98,24.21-20.99,36.34,30.94,22.48,61.82,44.92,92.7,67.36-.04.09-.07.17-.11.26h-87.94c3.51-6.09,6.92-12.01,10.44-18.12-10.21-7.42-20.4-14.83-30.76-22.36-15.09,26.13-30.11,52.15-45.25,78.37H206.33c-.31-1.17-43.67-76.49-45.07-78.27-10.16,7.38-20.32,14.76-30.63,22.25,3.47,6.04,6.9,12,10.44,18.14H53.12c-.04-.08-.09-.17-.13-.25,30.87-22.43,61.74-44.86,92.73-67.38-7-12.12-13.93-24.12-20.98-36.34C83.15,298.06,41.67,328.22.08,358.42c-41.53-30.18-83-60.31-124.65-90.56Z"/>
        <path class="cls-1" d="m.08,50.97c-36.57,63.81-73,127.39-109.54,191.16,10.37,6.76,20.7,13.49,31.14,20.3C-52.19,217.19-26.14,172.06.08,126.65c26.17,45.33,52.22,90.44,78.26,135.54,1.17-.35,29.35-18.58,31.21-20.18C73.11,178.42,36.66,114.81.08,50.97Z"/>
      </g>
    </g>
  </g>
</svg>