<?xml version="1.0" encoding="UTF-8"?>
<svg id="Warstwa_10" data-name="Warstwa 10" xmlns="http://www.w3.org/2000/svg" viewBox="0 0 209.37 322.22">
  <defs>
    <style>
      .cls-1 {
        fill: #fff;
      }

      .cls-2 {
        fill: #354beb;
      }
    </style>
  </defs>
  <path class="cls-1" d="m0,99.47v115.82h53.41C105.33,143.55,157.38,71.81,209.36,0c-17.44.07-34.95.27-52.46.34-39.17,53.48-78.42,106.96-117.59,160.44v-92.25l19.01,10.97,23.3-31.95-30.86-17.78L0,.48v98.99H0Z"/>
  <path class="cls-1" d="m143.83,198.8c4.09,5.45,8.18,10.83,12.33,16.35l53.07-.2c-21.87-29.09-43.87-58.18-65.74-87.27-21.53,29.16-43.06,58.45-64.72,87.68l53.07-.2c3.95-5.45,7.9-10.9,11.99-16.35h0Z"/>
  <path class="cls-2" d="m150.02,240.41c-14.93,11.78-29.82,23.56-44.72,35.31-15.15-11.73-30.34-23.46-45.54-35.2l-59.76.13c35.1,27.19,70.41,54.37,105.51,81.56,34.55-27.25,69.1-54.63,103.86-81.94l-59.35.13Z"/>
</svg>