<?xml version="1.0" encoding="UTF-8"?>
<svg id="Warstwa_10" data-name="Warstwa 10" xmlns="http://www.w3.org/2000/svg" viewBox="0 0 2495 528.2">
  <g id="Warstwa_8" data-name="Warstwa 8">
    <g>
      <path d="m460.4,420.5c-73.8,0-105.6-45.4-105.6-116.5v-81.2c.9-68.3,33.9-116,105.6-116h112.8c71.5,0,104.6,47.7,105.4,116v81.2c0,71.1-31.6,116.5-105.6,116.5h-112.6Zm97.2-80.2c27.9,0,39.9-12.9,39.9-49.1v-56.5c0-31.6-10.1-47.7-39.9-47.7h-82.1c-27.5,0-38.5,16.1-39.4,47.7v56.4c0,36.2,11.5,49.1,39.4,49.1h82.1v.1Z"/>
      <path d="m722.1,187.1v-80.3h204.1c67.8,0,101.9,34.8,101.9,104.6,0,46.3-14.7,77.5-44,93.1l64.6,117h-93.1l-56.4-105.6h-96.8v104.6h-80.3v-185h196.4c17,0,25.8-8.3,25.8-24.4s-8.3-24.4-24.7-24.4l-197.5.4h0Z"/>
      <path d="m1088.1,187.5v-80.3h204.1c67.8,0,101.9,34.8,101.9,104.6s-33,104.6-98.6,104.6h-127.1v104.6h-80.3v-185.1h200.1c17,0,25.8-8.3,25.8-24.4s-8.3-24.4-24.7-24.4h-201.1v.4h-.1Z"/>
      <path d="m1478.3,106.8h132.1l114.6,314.3h-85.3l-95.4-261-95.4,261h-85.3l114.7-314.3h0Z"/>
      <path d="m1761.8,420.5l.5-313.8h107.9l127.1,207.8V106.8h80.3v313.8h-107.5l-128-210.1v210.1h-80.3v-.1Z"/>
      <path d="m2132.6,187.3v-80.3h217.4c66.6,0,99.6,52.3,99.6,156.4s-32.6,156.8-97.7,156.8h-219.8v-195h80.3v114.8h131.2c17,0,25.6-25.6,25.6-76.6s-10.1-76.1-30.7-76.1h-205.9Z"/>
    </g>
  </g>
  <g id="Warstwa_12" data-name="Warstwa 12">
    <path d="m45.5,252.1v170h78.4c76.2-105.3,152.6-210.6,228.9-316-25.6.1-51.3.4-77,.5-57.5,78.5-115.1,157-172.6,235.5v-135.4l27.9,16.1,34.2-46.9-45.3-26.1-74.5-43v145.3h0Z"/>
    <path d="m256.6,397.9c6,8,12,15.9,18.1,24l77.9-.3c-32.1-42.7-64.4-85.4-96.5-128.1-31.6,42.8-63.2,85.8-95,128.7l77.9-.3c5.8-8,11.6-16,17.6-24h0Z"/>
    <path d="m1544.3,396.3c3.2,8,6.2,15.9,9.4,24l40.5-.3c-16.7-42.7-33.5-85.4-50.2-128.1-16.4,42.8-32.9,85.8-49.5,128.7l40.5-.3c3.1-7.9,6.3-15.9,9.3-24h0Z"/>
  </g>
</svg>