<?xml version="1.0" encoding="utf-8"?>
<!-- Generator: Adobe Illustrator 27.3.1, SVG Export Plug-In . SVG Version: 6.00 Build 0)  -->
<svg version="1.1" id="Warstwa_10" xmlns="http://www.w3.org/2000/svg" xmlns:xlink="http://www.w3.org/1999/xlink" x="0px" y="0px"
	 viewBox="0 0 144 144" style="enable-background:new 0 0 144 144;" xml:space="preserve">
<style type="text/css">
	.st0{fill:#FFFFFF;}
</style>
<g>
	<g id="Warstwa_8">
		<g>
			<path d="M288.1-367c-73.8,0-105.6-45.4-105.6-116.5v-81.2c0.9-68.3,33.9-116,105.6-116h112.8c71.5,0,104.6,47.7,105.4,116v81.2
				c0,71.1-31.6,116.5-105.6,116.5H288.1L288.1-367z M385.3-447.2c27.9,0,39.9-12.9,39.9-49.1v-56.5c0-31.6-10.1-47.7-39.9-47.7
				h-82.1c-27.5,0-38.5,16.1-39.4,47.7v56.4c0,36.2,11.5,49.1,39.4,49.1h82.1V-447.2z"/>
			<path d="M549.8-600.4v-80.3h204.1c67.8,0,101.9,34.8,101.9,104.6c0,46.3-14.7,77.5-44,93.1l64.6,117h-93.1l-56.4-105.6h-96.8
				V-367h-80.3v-185h196.4c17,0,25.8-8.3,25.8-24.4c0-16.1-8.3-24.4-24.7-24.4L549.8-600.4L549.8-600.4z"/>
			<path d="M915.8-600v-80.3h204.1c67.8,0,101.9,34.8,101.9,104.6s-33,104.6-98.6,104.6H996.1v104.6h-80.3v-185.1h200.1
				c17,0,25.8-8.3,25.8-24.4s-8.3-24.4-24.7-24.4H915.9v0.4H915.8z"/>
			<path d="M1306-680.7h132.1l114.6,314.3h-85.3l-95.4-261l-95.4,261h-85.3L1306-680.7L1306-680.7L1306-680.7z"/>
			<path d="M1589.5-367l0.5-313.8h107.9L1825-473v-207.7h80.3v313.8h-107.5l-128-210.1v210.1L1589.5-367L1589.5-367z"/>
			<path d="M1960.3-600.2v-80.3h217.4c66.6,0,99.6,52.3,99.6,156.4s-32.6,156.8-97.7,156.8h-219.8v-195h80.3v114.8h131.2
				c17,0,25.6-25.6,25.6-76.6s-10.1-76.1-30.7-76.1H1960.3L1960.3-600.2z"/>
		</g>
	</g>
	<g id="Warstwa_12">
		<path d="M-126.8-535.4v170h78.4c76.2-105.3,152.6-210.6,228.9-316c-25.6,0.1-51.3,0.4-77,0.5C46-602.4-11.6-523.9-69.1-445.4
			v-135.4l27.9,16.1L-7-611.6l-45.3-26.1l-74.5-43L-126.8-535.4L-126.8-535.4L-126.8-535.4z"/>
		<path d="M84.3-389.6c6,8,12,15.9,18.1,24l77.9-0.3c-32.1-42.7-64.4-85.4-96.5-128.1c-31.6,42.8-63.2,85.8-95,128.7l77.9-0.3
			C72.5-373.6,78.3-381.6,84.3-389.6L84.3-389.6L84.3-389.6z"/>
		<path d="M1372-391.2c3.2,8,6.2,15.9,9.4,24l40.5-0.3c-16.7-42.7-33.5-85.4-50.2-128.1c-16.4,42.8-32.9,85.8-49.5,128.7l40.5-0.3
			C1365.8-375.1,1369-383.1,1372-391.2L1372-391.2L1372-391.2z"/>
	</g>
	<g>
		<path class="st0" d="M9.4,67.1v69.3h31.9c31-42.9,62.2-85.8,93.3-128.7c-10.4,0-20.9,0.2-31.4,0.2c-23.4,32-46.9,64-70.3,95.9
			V48.6l11.4,6.6L58.2,36L39.8,25.4L9.4,7.9L9.4,67.1L9.4,67.1L9.4,67.1z"/>
		<path class="st0" d="M95.4,126.5c2.4,3.3,4.9,6.5,7.4,9.8l31.7-0.1c-13.1-17.4-26.2-34.8-39.3-52.2c-12.9,17.4-25.7,35-38.7,52.4
			l31.7-0.1C90.6,133,93,129.7,95.4,126.5L95.4,126.5L95.4,126.5z"/>
	</g>
</g>
</svg>
