<?xml version="1.0" encoding="utf-8"?>
<!-- Generator: Adobe Illustrator 27.3.1, SVG Export Plug-In . SVG Version: 6.00 Build 0)  -->
<svg version="1.1" id="Warstwa_10" xmlns="http://www.w3.org/2000/svg" xmlns:xlink="http://www.w3.org/1999/xlink" x="0px" y="0px"
	 viewBox="0 0 2495 528.2" style="enable-background:new 0 0 2495 528.2;" xml:space="preserve">
<style type="text/css">
	.st0{fill:#0E0021;}
</style>
<g id="Warstwa_10-2">
	<g>
		<path class="st0" d="M122,208.8c-10.3-17.9-20.5-35.6-30.8-53.4c45.5-33,90.8-66,136.2-99c-0.1-0.1-0.1-0.2-0.1-0.4H98
			c5.2,9,10.2,17.6,15.3,26.6c-15,10.9-30,21.8-45.2,32.8C45.9,77.2,23.9,38.9,1.6,0.4h606.6c-0.5,1.7-64.2,112.4-66.2,115
			c-14.9-10.8-29.9-21.7-45-32.7c5.1-8.9,10.1-17.6,15.3-26.7H383.1c-0.1,0.1-0.1,0.2-0.2,0.4c45.4,33,90.7,65.9,136.3,99
			c-10.3,17.8-20.5,35.4-30.8,53.4c-61.1-44.4-122.1-88.7-183.2-133.1C244.1,120.1,183.2,164.4,122,208.8L122,208.8z"/>
		<path class="st0" d="M305.1,527.5c-53.7-93.8-107.3-187.2-161-280.9c15.2-9.9,30.4-19.8,45.8-29.8
			c38.4,66.5,76.7,132.8,115.2,199.5c38.5-66.6,76.7-132.9,115-199.2c1.7,0.5,43.1,27.3,45.9,29.7
			C412.5,340.3,358.9,433.7,305.1,527.5L305.1,527.5z"/>
		<path class="st0" d="M386.4,192.6c0,16.5-13.4,29.9-29.9,29.9c-16.5,0-30-13.3-30-29.8c0-16.6,13.5-30.1,30-30.1
			C373,162.7,386.4,176.1,386.4,192.6z"/>
		<path class="st0" d="M283.7,192.7c0,16.6-13.4,29.9-30,29.8c-16.5,0-29.8-13.4-29.8-30c0-16.6,13.5-29.9,30-29.9
			C270.5,162.7,283.7,176.1,283.7,192.7L283.7,192.7z"/>
	</g>
</g>
<g id="Warstwa_8">
	<g>
		<path class="st0" d="M934.9,394.7c-57.9,0-82.8-35.6-82.8-91.4v-63.7c0.7-53.6,26.6-91,82.8-91h88.5c56.1,0,82,37.4,82.7,91v63.7
			c0,55.8-24.8,91.4-82.8,91.4L934.9,394.7L934.9,394.7z M1011.2,331.8c21.9,0,31.3-10.1,31.3-38.5V249c0-24.8-7.9-37.4-31.3-37.4
			h-64.4c-21.6,0-30.2,12.6-30.9,37.4v44.2c0,28.4,9,38.5,30.9,38.5H1011.2L1011.2,331.8z"/>
		<path class="st0" d="M1140.2,211.6v-63h160.1c53.2,0,79.9,27.3,79.9,82c0,36.3-11.5,60.8-34.5,73l50.7,91.8h-73l-44.2-82.8h-75.9
			v82h-63v-145h154c13.3,0,20.2-6.5,20.2-19.1s-6.5-19.1-19.4-19.1L1140.2,211.6L1140.2,211.6z"/>
		<path class="st0" d="M1427.2,211.9v-63h160.1c53.2,0,79.9,27.3,79.9,82s-25.9,82-77.3,82h-99.7v82h-63v-145h156.9
			c13.3,0,20.2-6.5,20.2-19.1s-6.5-19.1-19.4-19.1H1427.2L1427.2,211.9z"/>
		<path class="st0" d="M1733.3,148.6h103.6l89.9,246.5h-66.9l-74.8-204.7l-74.8,204.7h-66.9L1733.3,148.6L1733.3,148.6L1733.3,148.6
			z"/>
		<path class="st0" d="M1955.6,394.7l0.4-246.1h84.6l99.7,163v-163h63v246.1H2119l-100.4-164.8v164.8L1955.6,394.7L1955.6,394.7z"/>
		<path class="st0" d="M2246.4,211.8v-63h170.5c52.2,0,78.1,41,78.1,122.7s-25.6,123-76.6,123H2246V241.6h63v89.9h102.9
			c13.3,0,20.1-20.1,20.1-60.1s-7.9-59.7-24.1-59.7L2246.4,211.8L2246.4,211.8z"/>
	</g>
</g>
<g id="Warstwa_12">
	<path class="st0" d="M609.5,262.6v133.3H671c59.8-82.6,119.7-165.2,179.5-247.8c-20.1,0.1-40.2,0.3-60.4,0.4
		c-45.1,61.6-90.3,123.1-135.4,184.7V227l21.9,12.6l26.8-36.8l-35.5-20.5l-58.4-33.7L609.5,262.6L609.5,262.6L609.5,262.6z"/>
	<path class="st0" d="M775.1,376.9c4.7,6.3,9.4,12.5,14.2,18.8l61.1-0.2c-25.2-33.5-50.5-67-75.7-100.5
		c-24.8,33.6-49.6,67.3-74.5,100.9l61.1-0.2C765.8,389.5,770.4,383.2,775.1,376.9L775.1,376.9L775.1,376.9z"/>
	<path class="st0" d="M1785,375.7c2.5,6.3,4.9,12.5,7.4,18.8l31.8-0.2c-13.1-33.5-26.3-67-39.4-100.5
		c-12.9,33.6-25.8,67.3-38.8,100.9l31.8-0.2C1780.2,388.3,1782.7,382,1785,375.7L1785,375.7L1785,375.7z"/>
</g>
</svg>
