<?xml version="1.0" encoding="utf-8"?>
<!-- Generator: Adobe Illustrator 27.3.1, SVG Export Plug-In . SVG Version: 6.00 Build 0)  -->
<svg version="1.1" id="Warstwa_10" xmlns="http://www.w3.org/2000/svg" xmlns:xlink="http://www.w3.org/1999/xlink" x="0px" y="0px"
	 viewBox="0 0 2495 528.2" style="enable-background:new 0 0 2495 528.2;" xml:space="preserve">
<g>
	<g id="Warstwa_8">
		<g>
			<path d="M460.4,420.5c-73.8,0-105.6-45.4-105.6-116.5v-81.2c0.9-68.3,33.9-116,105.6-116h112.8c71.5,0,104.6,47.7,105.4,116V304
				c0,71.1-31.6,116.5-105.6,116.5H460.4L460.4,420.5z M557.6,340.3c27.9,0,39.9-12.9,39.9-49.1v-56.5c0-31.6-10.1-47.7-39.9-47.7
				h-82.1c-27.5,0-38.5,16.1-39.4,47.7v56.4c0,36.2,11.5,49.1,39.4,49.1h82.1V340.3z"/>
			<path d="M722.1,187.1v-80.3h204.1c67.8,0,101.9,34.8,101.9,104.6c0,46.3-14.7,77.5-44,93.1l64.6,117h-93.1l-56.4-105.6h-96.8
				v104.6h-80.3V235.5h196.4c17,0,25.8-8.3,25.8-24.4s-8.3-24.4-24.7-24.4L722.1,187.1L722.1,187.1z"/>
			<path d="M1088.1,187.5v-80.3h204.1c67.8,0,101.9,34.8,101.9,104.6s-33,104.6-98.6,104.6h-127.1v104.6h-80.3V235.9h200.1
				c17,0,25.8-8.3,25.8-24.4s-8.3-24.4-24.7-24.4h-201.1V187.5z"/>
			<path d="M1478.3,106.8h132.1l114.6,314.3h-85.3l-95.4-261l-95.4,261h-85.3L1478.3,106.8L1478.3,106.8L1478.3,106.8z"/>
			<path d="M1761.8,420.5l0.5-313.8h107.9l127.1,207.8V106.8h80.3v313.8h-107.5l-128-210.1v210.1H1761.8L1761.8,420.5z"/>
			<path d="M2132.6,187.3V107H2350c66.6,0,99.6,52.3,99.6,156.4s-32.6,156.8-97.7,156.8h-219.8v-195h80.3V340h131.2
				c17,0,25.6-25.6,25.6-76.6s-10.1-76.1-30.7-76.1L2132.6,187.3L2132.6,187.3z"/>
		</g>
	</g>
	<g id="Warstwa_12">
		<path d="M45.5,252.1v170h78.4c76.2-105.3,152.6-210.6,228.9-316c-25.6,0.1-51.3,0.4-77,0.5c-57.5,78.5-115.1,157-172.6,235.5
			V206.7l27.9,16.1l34.2-46.9l-45.3-26.1l-74.5-43L45.5,252.1L45.5,252.1L45.5,252.1z"/>
		<path d="M256.6,397.9c6,8,12,15.9,18.1,24l77.9-0.3c-32.1-42.7-64.4-85.4-96.5-128.1c-31.6,42.8-63.2,85.8-95,128.7l77.9-0.3
			C244.8,413.9,250.6,405.9,256.6,397.9L256.6,397.9L256.6,397.9z"/>
		<path d="M1544.3,396.3c3.2,8,6.2,15.9,9.4,24l40.5-0.3c-16.7-42.7-33.5-85.4-50.2-128.1c-16.4,42.8-32.9,85.8-49.5,128.7l40.5-0.3
			C1538.1,412.4,1541.3,404.4,1544.3,396.3L1544.3,396.3L1544.3,396.3z"/>
	</g>
</g>
</svg>
